<svg width="260" height="56" viewBox="0 0 260 56" fill="none" xmlns="http://www.w3.org/2000/svg">
<path d="M42.963 9.35135C42.963 14.516 47.0374 18.7027 52.0635 18.7027C57.0896 18.7027 61.164 22.8652 61.164 28C61.164 33.1348 57.0896 37.2973 52.0635 37.2973C47.0374 37.2973 42.963 41.484 42.963 46.6486C42.963 51.8133 47.0374 56 52.0635 56C57.0896 56 61.164 51.8133 61.164 46.6486C61.164 41.484 65.8734 37.2973 70.8995 37.2973C75.9256 37.2973 80 33.1348 80 28C80 22.8652 75.9256 18.7027 70.8995 18.7027C65.8734 18.7027 61.7989 14.516 61.7989 9.35135C61.7989 4.18674 57.0896 8.12796e-07 52.0635 8.12796e-07C47.0374 8.12796e-07 42.963 4.18674 42.963 9.35135Z" fill="#212121"/>
<path d="M37.037 46.6486C37.037 41.484 32.9626 37.2973 27.9365 37.2973C22.9104 37.2973 18.836 33.1348 18.836 28C18.836 22.8652 22.9104 18.7027 27.9365 18.7027C32.9626 18.7027 37.037 14.516 37.037 9.35135C37.037 4.18674 32.9626 4.48895e-07 27.9365 0C22.9104 -4.48895e-07 18.836 4.18674 18.836 9.35135C18.836 14.516 14.1266 18.7027 9.10053 18.7027C4.07445 18.7027 4.39394e-07 22.8652 0 28C-4.39394e-07 33.1348 4.07444 37.2973 9.10053 37.2973C14.1266 37.2973 18.2011 41.484 18.2011 46.6486C18.2011 51.8133 22.9104 56 27.9365 56C32.9626 56 37.037 51.8133 37.037 46.6486Z" fill="#212121"/>
<path d="M108.472 21.536C108.653 21.632 108.755 21.776 108.776 21.968C108.808 22.16 108.76 22.336 108.632 22.496C108.536 22.6347 108.413 22.7093 108.264 22.72C108.115 22.7307 107.965 22.6987 107.816 22.624C107.464 22.4107 107.085 22.2453 106.68 22.128C106.275 22 105.848 21.936 105.4 21.936C104.771 21.936 104.195 22.048 103.672 22.272C103.149 22.4853 102.696 22.7893 102.312 23.184C101.928 23.5787 101.629 24.048 101.416 24.592C101.203 25.136 101.096 25.7387 101.096 26.4C101.096 27.104 101.208 27.7333 101.432 28.288C101.656 28.8427 101.96 29.3173 102.344 29.712C102.739 30.096 103.192 30.3893 103.704 30.592C104.227 30.7947 104.792 30.896 105.4 30.896C105.837 30.896 106.259 30.8373 106.664 30.72C107.069 30.6027 107.453 30.432 107.816 30.208C107.965 30.1333 108.115 30.1067 108.264 30.128C108.413 30.1493 108.541 30.224 108.648 30.352C108.776 30.5227 108.824 30.704 108.792 30.896C108.76 31.0773 108.659 31.2107 108.488 31.296C108.221 31.456 107.917 31.6053 107.576 31.744C107.235 31.872 106.877 31.9733 106.504 32.048C106.141 32.1227 105.773 32.16 105.4 32.16C104.632 32.16 103.907 32.0267 103.224 31.76C102.541 31.4933 101.939 31.1093 101.416 30.608C100.893 30.1067 100.477 29.504 100.168 28.8C99.8693 28.0853 99.72 27.2853 99.72 26.4C99.72 25.568 99.864 24.8053 100.152 24.112C100.44 23.4187 100.84 22.816 101.352 22.304C101.875 21.792 102.477 21.392 103.16 21.104C103.853 20.816 104.6 20.672 105.4 20.672C105.955 20.672 106.493 20.7467 107.016 20.896C107.549 21.0453 108.035 21.2587 108.472 21.536ZM118.657 30.736C118.838 30.736 118.993 30.8 119.121 30.928C119.249 31.0453 119.313 31.1947 119.313 31.376C119.313 31.5573 119.249 31.7067 119.121 31.824C118.993 31.9413 118.838 32 118.657 32H113.121C112.939 32 112.785 31.936 112.657 31.808C112.539 31.68 112.481 31.5253 112.481 31.344V21.44C112.481 21.2587 112.545 21.1093 112.673 20.992C112.801 20.864 112.961 20.8 113.153 20.8C113.334 20.8 113.489 20.864 113.617 20.992C113.745 21.1093 113.809 21.2587 113.809 21.44V31.024L113.489 30.736H118.657ZM132.852 26.4C132.852 27.2213 132.719 27.984 132.452 28.688C132.185 29.3813 131.812 29.9893 131.332 30.512C130.852 31.0347 130.281 31.44 129.62 31.728C128.959 32.016 128.239 32.16 127.46 32.16C126.671 32.16 125.945 32.016 125.284 31.728C124.633 31.44 124.068 31.0347 123.588 30.512C123.108 29.9893 122.735 29.3813 122.468 28.688C122.201 27.984 122.068 27.2213 122.068 26.4C122.068 25.568 122.201 24.8053 122.468 24.112C122.735 23.408 123.108 22.8 123.588 22.288C124.068 21.7653 124.633 21.36 125.284 21.072C125.945 20.784 126.671 20.64 127.46 20.64C128.239 20.64 128.959 20.784 129.62 21.072C130.281 21.36 130.852 21.7653 131.332 22.288C131.812 22.8 132.185 23.408 132.452 24.112C132.719 24.8053 132.852 25.568 132.852 26.4ZM131.476 26.4C131.476 25.5253 131.3 24.752 130.948 24.08C130.607 23.408 130.137 22.88 129.54 22.496C128.943 22.112 128.249 21.92 127.46 21.92C126.671 21.92 125.972 22.112 125.364 22.496C124.767 22.88 124.297 23.408 123.956 24.08C123.615 24.752 123.444 25.5253 123.444 26.4C123.444 27.264 123.615 28.0373 123.956 28.72C124.297 29.392 124.767 29.92 125.364 30.304C125.972 30.688 126.671 30.88 127.46 30.88C128.249 30.88 128.943 30.688 129.54 30.304C130.137 29.92 130.607 29.392 130.948 28.72C131.3 28.0373 131.476 27.264 131.476 26.4ZM144.671 20.784C144.852 20.784 145.002 20.848 145.119 20.976C145.236 21.104 145.295 21.2587 145.295 21.44V27.792C145.295 28.6133 145.103 29.3493 144.719 30C144.346 30.6507 143.839 31.168 143.199 31.552C142.559 31.9253 141.834 32.112 141.023 32.112C140.202 32.112 139.466 31.9253 138.815 31.552C138.175 31.168 137.668 30.6507 137.295 30C136.922 29.3493 136.735 28.6133 136.735 27.792V21.44C136.735 21.2587 136.794 21.104 136.911 20.976C137.039 20.848 137.204 20.784 137.407 20.784C137.578 20.784 137.727 20.848 137.855 20.976C137.994 21.104 138.063 21.2587 138.063 21.44V27.792C138.063 28.3787 138.196 28.9013 138.463 29.36C138.73 29.8187 139.087 30.1813 139.535 30.448C139.994 30.704 140.49 30.832 141.023 30.832C141.567 30.832 142.068 30.704 142.527 30.448C142.986 30.1813 143.354 29.8187 143.631 29.36C143.919 28.9013 144.063 28.3787 144.063 27.792V21.44C144.063 21.2587 144.116 21.104 144.223 20.976C144.33 20.848 144.479 20.784 144.671 20.784ZM154.494 20.8C155.273 20.8 155.956 20.9493 156.542 21.248C157.14 21.536 157.636 21.9413 158.03 22.464C158.425 22.9867 158.718 23.5893 158.91 24.272C159.113 24.944 159.214 25.6533 159.214 26.4C159.214 27.424 159.038 28.3627 158.686 29.216C158.334 30.0587 157.812 30.736 157.118 31.248C156.425 31.7493 155.55 32 154.494 32H150.494C150.313 32 150.158 31.936 150.03 31.808C149.913 31.68 149.854 31.5253 149.854 31.344V21.44C149.854 21.2587 149.913 21.1093 150.03 20.992C150.158 20.864 150.313 20.8 150.494 20.8H154.494ZM154.334 30.752C155.156 30.752 155.822 30.5547 156.334 30.16C156.857 29.7653 157.236 29.2373 157.47 28.576C157.716 27.9147 157.838 27.1893 157.838 26.4C157.838 25.824 157.769 25.2747 157.63 24.752C157.502 24.2187 157.294 23.7493 157.006 23.344C156.729 22.9387 156.366 22.6187 155.918 22.384C155.481 22.1493 154.953 22.032 154.334 22.032H151.054L151.182 21.904V30.912L151.086 30.752H154.334ZM172.241 32.16C171.484 32.16 170.812 31.9893 170.225 31.648C169.638 31.296 169.174 30.848 168.833 30.304C168.502 29.7493 168.337 29.168 168.337 28.56C168.337 28.0693 168.428 27.6053 168.609 27.168C168.801 26.7307 169.084 26.3413 169.457 26C169.841 25.648 170.326 25.3653 170.913 25.152L171.793 26.048C170.993 26.2187 170.433 26.5173 170.113 26.944C169.804 27.36 169.649 27.8347 169.649 28.368C169.649 28.7947 169.75 29.2053 169.953 29.6C170.156 29.9947 170.465 30.3147 170.881 30.56C171.308 30.8053 171.836 30.928 172.465 30.928C173.094 30.928 173.644 30.816 174.113 30.592C174.582 30.368 174.977 30.064 175.297 29.68C175.617 29.296 175.878 28.8693 176.081 28.4C176.284 27.9307 176.422 27.456 176.497 26.976C176.518 26.848 176.572 26.7467 176.657 26.672C176.742 26.5973 176.876 26.56 177.057 26.56C177.238 26.56 177.382 26.6347 177.489 26.784C177.606 26.9333 177.649 27.1093 177.617 27.312C177.532 27.9093 177.356 28.496 177.089 29.072C176.822 29.648 176.47 30.1707 176.033 30.64C175.596 31.0987 175.062 31.4667 174.433 31.744C173.804 32.0213 173.073 32.16 172.241 32.16ZM177.937 31.984C177.852 31.984 177.777 31.9733 177.713 31.952C177.66 31.92 177.612 31.8933 177.569 31.872C176.876 31.3067 176.22 30.7733 175.601 30.272C174.993 29.7707 174.401 29.2533 173.825 28.72C173.249 28.176 172.668 27.568 172.081 26.896C171.708 26.4693 171.366 26.064 171.057 25.68C170.758 25.296 170.518 24.9173 170.337 24.544C170.156 24.1707 170.065 23.7867 170.065 23.392C170.065 22.88 170.193 22.416 170.449 22C170.705 21.584 171.068 21.2533 171.537 21.008C172.017 20.7627 172.582 20.64 173.233 20.64C173.99 20.64 174.636 20.7787 175.169 21.056C175.702 21.3227 176.07 21.6587 176.273 22.064C176.284 22.0747 176.3 22.1227 176.321 22.208C176.353 22.2827 176.369 22.368 176.369 22.464C176.369 22.592 176.316 22.7147 176.209 22.832C176.113 22.9387 175.974 22.992 175.793 22.992C175.686 22.992 175.596 22.9707 175.521 22.928C175.446 22.8747 175.388 22.8213 175.345 22.768C175.132 22.4587 174.86 22.2133 174.529 22.032C174.198 21.8507 173.766 21.76 173.233 21.76C172.636 21.76 172.182 21.9093 171.873 22.208C171.564 22.5067 171.409 22.8907 171.409 23.36C171.409 23.68 171.505 24.0213 171.697 24.384C171.9 24.736 172.145 25.088 172.433 25.44C172.732 25.7813 173.02 26.1067 173.297 26.416C173.692 26.8533 174.113 27.2907 174.561 27.728C175.009 28.1547 175.457 28.5653 175.905 28.96C176.353 29.344 176.774 29.7013 177.169 30.032C177.574 30.352 177.921 30.624 178.209 30.848C178.305 30.9333 178.374 31.0187 178.417 31.104C178.46 31.1893 178.481 31.2907 178.481 31.408C178.481 31.5147 178.433 31.6373 178.337 31.776C178.252 31.9147 178.118 31.984 177.937 31.984ZM196.286 21.536C196.468 21.632 196.569 21.776 196.59 21.968C196.622 22.16 196.574 22.336 196.446 22.496C196.35 22.6347 196.228 22.7093 196.078 22.72C195.929 22.7307 195.78 22.6987 195.63 22.624C195.278 22.4107 194.9 22.2453 194.494 22.128C194.089 22 193.662 21.936 193.214 21.936C192.585 21.936 192.009 22.048 191.486 22.272C190.964 22.4853 190.51 22.7893 190.126 23.184C189.742 23.5787 189.444 24.048 189.23 24.592C189.017 25.136 188.91 25.7387 188.91 26.4C188.91 27.104 189.022 27.7333 189.246 28.288C189.47 28.8427 189.774 29.3173 190.158 29.712C190.553 30.096 191.006 30.3893 191.518 30.592C192.041 30.7947 192.606 30.896 193.214 30.896C193.652 30.896 194.073 30.8373 194.478 30.72C194.884 30.6027 195.268 30.432 195.63 30.208C195.78 30.1333 195.929 30.1067 196.078 30.128C196.228 30.1493 196.356 30.224 196.462 30.352C196.59 30.5227 196.638 30.704 196.606 30.896C196.574 31.0773 196.473 31.2107 196.302 31.296C196.036 31.456 195.732 31.6053 195.39 31.744C195.049 31.872 194.692 31.9733 194.318 32.048C193.956 32.1227 193.588 32.16 193.214 32.16C192.446 32.16 191.721 32.0267 191.038 31.76C190.356 31.4933 189.753 31.1093 189.23 30.608C188.708 30.1067 188.292 29.504 187.982 28.8C187.684 28.0853 187.534 27.2853 187.534 26.4C187.534 25.568 187.678 24.8053 187.966 24.112C188.254 23.4187 188.654 22.816 189.166 22.304C189.689 21.792 190.292 21.392 190.974 21.104C191.668 20.816 192.414 20.672 193.214 20.672C193.769 20.672 194.308 20.7467 194.83 20.896C195.364 21.0453 195.849 21.2587 196.286 21.536ZM210.391 26.4C210.391 27.2213 210.258 27.984 209.991 28.688C209.724 29.3813 209.351 29.9893 208.871 30.512C208.391 31.0347 207.82 31.44 207.159 31.728C206.498 32.016 205.778 32.16 204.999 32.16C204.21 32.16 203.484 32.016 202.823 31.728C202.172 31.44 201.607 31.0347 201.127 30.512C200.647 29.9893 200.274 29.3813 200.007 28.688C199.74 27.984 199.607 27.2213 199.607 26.4C199.607 25.568 199.74 24.8053 200.007 24.112C200.274 23.408 200.647 22.8 201.127 22.288C201.607 21.7653 202.172 21.36 202.823 21.072C203.484 20.784 204.21 20.64 204.999 20.64C205.778 20.64 206.498 20.784 207.159 21.072C207.82 21.36 208.391 21.7653 208.871 22.288C209.351 22.8 209.724 23.408 209.991 24.112C210.258 24.8053 210.391 25.568 210.391 26.4ZM209.015 26.4C209.015 25.5253 208.839 24.752 208.487 24.08C208.146 23.408 207.676 22.88 207.079 22.496C206.482 22.112 205.788 21.92 204.999 21.92C204.21 21.92 203.511 22.112 202.903 22.496C202.306 22.88 201.836 23.408 201.495 24.08C201.154 24.752 200.983 25.5253 200.983 26.4C200.983 27.264 201.154 28.0373 201.495 28.72C201.836 29.392 202.306 29.92 202.903 30.304C203.511 30.688 204.21 30.88 204.999 30.88C205.788 30.88 206.482 30.688 207.079 30.304C207.676 29.92 208.146 29.392 208.487 28.72C208.839 28.0373 209.015 27.264 209.015 26.4ZM218.914 20.8C219.692 20.8 220.375 20.9493 220.962 21.248C221.559 21.536 222.055 21.9413 222.45 22.464C222.844 22.9867 223.138 23.5893 223.33 24.272C223.532 24.944 223.634 25.6533 223.634 26.4C223.634 27.424 223.458 28.3627 223.106 29.216C222.754 30.0587 222.231 30.736 221.538 31.248C220.844 31.7493 219.97 32 218.914 32H214.914C214.732 32 214.578 31.936 214.45 31.808C214.332 31.68 214.274 31.5253 214.274 31.344V21.44C214.274 21.2587 214.332 21.1093 214.45 20.992C214.578 20.864 214.732 20.8 214.914 20.8H218.914ZM218.754 30.752C219.575 30.752 220.242 30.5547 220.754 30.16C221.276 29.7653 221.655 29.2373 221.89 28.576C222.135 27.9147 222.258 27.1893 222.258 26.4C222.258 25.824 222.188 25.2747 222.05 24.752C221.922 24.2187 221.714 23.7493 221.426 23.344C221.148 22.9387 220.786 22.6187 220.338 22.384C219.9 22.1493 219.372 22.032 218.754 22.032H215.474L215.602 21.904V30.912L215.506 30.752H218.754ZM228.158 20.8H233.854C234.035 20.8 234.19 20.8587 234.318 20.976C234.446 21.0933 234.51 21.2427 234.51 21.424C234.51 21.6053 234.446 21.7547 234.318 21.872C234.19 21.9787 234.035 22.032 233.854 22.032H228.702L228.846 21.76V25.808L228.686 25.632H233.134C233.315 25.632 233.47 25.6907 233.598 25.808C233.726 25.9253 233.79 26.0747 233.79 26.256C233.79 26.4373 233.726 26.5867 233.598 26.704C233.47 26.8107 233.315 26.864 233.134 26.864H228.734L228.846 26.72V30.864L228.75 30.752H233.854C234.035 30.752 234.19 30.816 234.318 30.944C234.446 31.072 234.51 31.216 234.51 31.376C234.51 31.5573 234.446 31.7067 234.318 31.824C234.19 31.9413 234.035 32 233.854 32H228.158C227.977 32 227.822 31.936 227.694 31.808C227.577 31.68 227.518 31.5253 227.518 31.344V21.44C227.518 21.2587 227.577 21.1093 227.694 20.992C227.822 20.864 227.977 20.8 228.158 20.8ZM104.28 42.464L100.52 51.616C100.477 51.744 100.403 51.8453 100.296 51.92C100.189 51.9947 100.077 52.032 99.96 52.032C99.7573 52.032 99.608 51.9787 99.512 51.872C99.416 51.7653 99.368 51.6373 99.368 51.488C99.3573 51.4133 99.368 51.3333 99.4 51.248L103.544 41.168C103.597 41.0187 103.677 40.912 103.784 40.848C103.901 40.7733 104.029 40.7413 104.168 40.752C104.307 40.752 104.429 40.7893 104.536 40.864C104.653 40.9387 104.733 41.04 104.776 41.168L108.904 51.152C108.936 51.2373 108.952 51.3227 108.952 51.408C108.952 51.6 108.888 51.7547 108.76 51.872C108.632 51.9787 108.488 52.032 108.328 52.032C108.2 52.032 108.083 51.9947 107.976 51.92C107.869 51.8453 107.789 51.7387 107.736 51.6L103.928 42.448L104.28 42.464ZM101.32 49.008L101.864 47.76H106.616L106.856 49.008H101.32ZM120.451 41.536C120.632 41.632 120.733 41.776 120.755 41.968C120.787 42.16 120.739 42.336 120.611 42.496C120.515 42.6347 120.392 42.7093 120.243 42.72C120.093 42.7307 119.944 42.6987 119.795 42.624C119.443 42.4107 119.064 42.2453 118.659 42.128C118.253 42 117.827 41.936 117.379 41.936C116.749 41.936 116.173 42.048 115.651 42.272C115.128 42.4853 114.675 42.7893 114.291 43.184C113.907 43.5787 113.608 44.048 113.395 44.592C113.181 45.136 113.075 45.7387 113.075 46.4C113.075 47.104 113.187 47.7333 113.411 48.288C113.635 48.8427 113.939 49.3173 114.323 49.712C114.717 50.096 115.171 50.3893 115.683 50.592C116.205 50.7947 116.771 50.896 117.379 50.896C117.816 50.896 118.237 50.8373 118.643 50.72C119.048 50.6027 119.432 50.432 119.795 50.208C119.944 50.1333 120.093 50.1067 120.243 50.128C120.392 50.1493 120.52 50.224 120.627 50.352C120.755 50.5227 120.803 50.704 120.771 50.896C120.739 51.0773 120.637 51.2107 120.467 51.296C120.2 51.456 119.896 51.6053 119.555 51.744C119.213 51.872 118.856 51.9733 118.483 52.048C118.12 52.1227 117.752 52.16 117.379 52.16C116.611 52.16 115.885 52.0267 115.203 51.76C114.52 51.4933 113.917 51.1093 113.395 50.608C112.872 50.1067 112.456 49.504 112.147 48.8C111.848 48.0853 111.699 47.2853 111.699 46.4C111.699 45.568 111.843 44.8053 112.131 44.112C112.419 43.4187 112.819 42.816 113.331 42.304C113.853 41.792 114.456 41.392 115.139 41.104C115.832 40.816 116.579 40.672 117.379 40.672C117.933 40.672 118.472 40.7467 118.995 40.896C119.528 41.0453 120.013 41.2587 120.451 41.536ZM128.331 42.464L124.571 51.616C124.529 51.744 124.454 51.8453 124.347 51.92C124.241 51.9947 124.129 52.032 124.011 52.032C123.809 52.032 123.659 51.9787 123.563 51.872C123.467 51.7653 123.419 51.6373 123.419 51.488C123.409 51.4133 123.419 51.3333 123.451 51.248L127.595 41.168C127.649 41.0187 127.729 40.912 127.835 40.848C127.953 40.7733 128.081 40.7413 128.219 40.752C128.358 40.752 128.481 40.7893 128.587 40.864C128.705 40.9387 128.785 41.04 128.827 41.168L132.955 51.152C132.987 51.2373 133.003 51.3227 133.003 51.408C133.003 51.6 132.939 51.7547 132.811 51.872C132.683 51.9787 132.539 52.032 132.379 52.032C132.251 52.032 132.134 51.9947 132.027 51.92C131.921 51.8453 131.841 51.7387 131.787 51.6L127.979 42.448L128.331 42.464ZM125.371 49.008L125.915 47.76H130.667L130.907 49.008H125.371ZM141.156 40.8C141.935 40.8 142.617 40.9493 143.204 41.248C143.801 41.536 144.297 41.9413 144.692 42.464C145.087 42.9867 145.38 43.5893 145.572 44.272C145.775 44.944 145.876 45.6533 145.876 46.4C145.876 47.424 145.7 48.3627 145.348 49.216C144.996 50.0587 144.473 50.736 143.78 51.248C143.087 51.7493 142.212 52 141.156 52H137.156C136.975 52 136.82 51.936 136.692 51.808C136.575 51.68 136.516 51.5253 136.516 51.344V41.44C136.516 41.2587 136.575 41.1093 136.692 40.992C136.82 40.864 136.975 40.8 137.156 40.8H141.156ZM140.996 50.752C141.817 50.752 142.484 50.5547 142.996 50.16C143.519 49.7653 143.897 49.2373 144.132 48.576C144.377 47.9147 144.5 47.1893 144.5 46.4C144.5 45.824 144.431 45.2747 144.292 44.752C144.164 44.2187 143.956 43.7493 143.668 43.344C143.391 42.9387 143.028 42.6187 142.58 42.384C142.143 42.1493 141.615 42.032 140.996 42.032H137.716L137.844 41.904V50.912L137.748 50.752H140.996ZM150.401 40.8H156.097C156.278 40.8 156.433 40.8587 156.561 40.976C156.689 41.0933 156.753 41.2427 156.753 41.424C156.753 41.6053 156.689 41.7547 156.561 41.872C156.433 41.9787 156.278 42.032 156.097 42.032H150.945L151.089 41.76V45.808L150.929 45.632H155.377C155.558 45.632 155.713 45.6907 155.841 45.808C155.969 45.9253 156.033 46.0747 156.033 46.256C156.033 46.4373 155.969 46.5867 155.841 46.704C155.713 46.8107 155.558 46.864 155.377 46.864H150.977L151.089 46.72V50.864L150.993 50.752H156.097C156.278 50.752 156.433 50.816 156.561 50.944C156.689 51.072 156.753 51.216 156.753 51.376C156.753 51.5573 156.689 51.7067 156.561 51.824C156.433 51.9413 156.278 52 156.097 52H150.401C150.219 52 150.065 51.936 149.937 51.808C149.819 51.68 149.761 51.5253 149.761 51.344V41.44C149.761 41.2587 149.819 41.1093 149.937 40.992C150.065 40.864 150.219 40.8 150.401 40.8ZM161.301 40.784C161.397 40.784 161.499 40.8107 161.605 40.864C161.723 40.9173 161.813 40.9867 161.877 41.072L166.117 47.488L165.557 47.472L169.845 41.072C169.984 40.8693 170.166 40.7733 170.389 40.784C170.56 40.7947 170.709 40.8587 170.837 40.976C170.965 41.0933 171.03 41.248 171.03 41.44V51.344C171.03 51.5253 170.965 51.68 170.837 51.808C170.709 51.936 170.55 52 170.358 52C170.166 52 170.005 51.936 169.877 51.808C169.749 51.68 169.686 51.5253 169.686 51.344V42.656L170.085 42.736L166.309 48.48C166.245 48.5547 166.165 48.6187 166.069 48.672C165.984 48.7253 165.893 48.752 165.797 48.752C165.701 48.752 165.605 48.7253 165.509 48.672C165.413 48.6187 165.333 48.5547 165.269 48.48L161.541 42.736L161.877 42.32V51.344C161.877 51.5253 161.819 51.68 161.701 51.808C161.584 51.936 161.435 52 161.253 52C161.072 52 160.923 51.936 160.805 51.808C160.699 51.68 160.645 51.5253 160.645 51.344V41.44C160.645 41.2693 160.704 41.12 160.821 40.992C160.949 40.8533 161.109 40.784 161.301 40.784ZM182.409 40.736C182.59 40.736 182.74 40.8053 182.857 40.944C182.985 41.072 183.049 41.2213 183.049 41.392C183.049 41.456 183.038 41.5253 183.017 41.6C183.006 41.664 182.98 41.728 182.937 41.792L179.225 46.96L179.433 46.176V51.344C179.433 51.5253 179.369 51.68 179.241 51.808C179.124 51.936 178.98 52 178.809 52C178.617 52 178.457 51.936 178.329 51.808C178.212 51.68 178.153 51.5253 178.153 51.344V46.304L178.265 46.72L174.665 41.856C174.601 41.7707 174.553 41.6907 174.521 41.616C174.5 41.5307 174.489 41.4507 174.489 41.376C174.489 41.1947 174.564 41.0453 174.713 40.928C174.862 40.8 175.012 40.736 175.161 40.736C175.374 40.736 175.55 40.8373 175.689 41.04L179.001 45.584L178.697 45.536L181.881 41.056C182.02 40.8427 182.196 40.736 182.409 40.736Z" fill="#212121"/>
</svg>
