<svg width="80" height="56" viewBox="0 0 80 56" fill="none" xmlns="http://www.w3.org/2000/svg">
<path d="M42.963 9.35135C42.963 14.516 47.0374 18.7027 52.0635 18.7027C57.0896 18.7027 61.164 22.8652 61.164 28C61.164 33.1348 57.0896 37.2973 52.0635 37.2973C47.0374 37.2973 42.963 41.484 42.963 46.6486C42.963 51.8133 47.0374 56 52.0635 56C57.0896 56 61.164 51.8133 61.164 46.6486C61.164 41.484 65.8734 37.2973 70.8995 37.2973C75.9256 37.2973 80 33.1348 80 28C80 22.8652 75.9256 18.7027 70.8995 18.7027C65.8734 18.7027 61.7989 14.516 61.7989 9.35135C61.7989 4.18674 57.0896 8.12796e-07 52.0635 8.12796e-07C47.0374 8.12796e-07 42.963 4.18674 42.963 9.35135Z" fill="#212121"/>
<path d="M37.037 46.6486C37.037 41.484 32.9626 37.2973 27.9365 37.2973C22.9104 37.2973 18.836 33.1348 18.836 28C18.836 22.8652 22.9104 18.7027 27.9365 18.7027C32.9626 18.7027 37.037 14.516 37.037 9.35135C37.037 4.18674 32.9626 4.48895e-07 27.9365 0C22.9104 -4.48895e-07 18.836 4.18674 18.836 9.35135C18.836 14.516 14.1266 18.7027 9.10053 18.7027C4.07445 18.7027 4.39394e-07 22.8652 0 28C-4.39394e-07 33.1348 4.07444 37.2973 9.10053 37.2973C14.1266 37.2973 18.2011 41.484 18.2011 46.6486C18.2011 51.8133 22.9104 56 27.9365 56C32.9626 56 37.037 51.8133 37.037 46.6486Z" fill="#212121"/>
</svg>
